#tb 0: 1001/30000
#media_type 0: video
#codec_id 0: rawvideo
#dimensions 0: 128x96
#sar 0: 1/1
0,          0,          0,        1,    18432, 0x3f5e24fc
0,          1,          1,        1,    18432, 0x7c4c54a8
0,          2,          2,        1,    18432, 0x96055c93
0,          3,          3,        1,    18432, 0x5ecf6688
0,          4,          4,        1,    18432, 0xffdc7de9
